<?xml version="1.0" encoding="UTF-8" standalone="no"?>
<!-- Created with Inkscape (http://www.inkscape.org/) -->

<svg
   version="1.1"
   id="svg1"
   width="1021.4831"
   height="1021.4831"
   viewBox="0 0 1021.4831 1021.4831"
   xmlns="http://www.w3.org/2000/svg"
   xmlns:svg="http://www.w3.org/2000/svg">
  <defs
     id="defs1" />
  <g
     id="g1">
    <path
       style="fill:#000000"
       d="m 454.11234,616.35952 c 0,-0.93933 0.5764,-1.51573 1.28089,-1.2809 2.00007,0.66669 2.33179,2.98876 0.42697,2.98876 -0.93932,0 -1.70786,-0.76854 -1.70786,-1.70786 z m 4.33378,-65.90422 c -4.00427,-10.70237 -5.38001,-18.7994 -5.39649,-31.76145 -0.0112,-8.79524 0.38685,-12.84195 1.33237,-13.54584 2.43028,-1.80924 13.97597,-4.86208 14.89435,-3.93828 0.49352,0.49643 1.04531,3.6992 1.2262,7.11726 0.18089,3.41805 0.81428,6.27466 1.40754,6.34801 0.59326,0.0734 3.50562,-4.32975 6.47191,-9.78468 4.8588,-8.9352 6.01323,-10.28578 11.64952,-13.62892 8.47475,-5.02674 9.38849,-4.88891 9.36546,1.41273 -0.0695,19.00292 -11.17089,41.11312 -29.51642,58.78652 -7.03691,6.7791 -8.57242,6.64409 -11.43444,-1.00535 z m 10.83743,-3.20954 c 12.09318,-11.31176 22.27856,-28.78168 25.33956,-43.4623 2.45405,-11.76967 2.11717,-12.5316 -3.88297,-8.78239 -3.65157,2.2817 -5.82585,4.8148 -8.53242,9.94055 -7.41274,14.03837 -11.97152,18.88877 -13.64771,14.5207 -0.32216,-0.83953 -0.91366,-4.62051 -1.31446,-8.40219 l -0.72872,-6.87578 -5.1236,1.45365 -5.12359,1.45366 v 11.62993 c 0,7.94483 0.65343,14.16254 2.06217,19.62269 2.33919,9.06645 4.07285,13.92535 4.96858,13.92535 0.33673,0 3.02915,-2.26074 5.98316,-5.02387 z m 73.15698,0.97893 c -17.86251,-18.29816 -24.49122,-32.42127 -26.34616,-56.13302 -0.98193,-12.55209 0.0112,-13.23722 8.85336,-6.10743 4.73297,3.81641 6.84922,6.46033 8.55657,10.69007 1.24761,3.09078 3.87516,8.63424 5.83901,12.3188 4.22659,7.92989 5.33518,7.23172 5.35925,-3.37516 0.009,-4.00449 0.39456,-7.2809 0.85662,-7.2809 0.46205,0 4.22385,1.4265 8.35955,3.17 l 7.51944,3.16999 0.89551,5.72888 c 2.48747,15.91315 -4.3419,46.17832 -10.42018,46.17832 -0.72185,0 -4.98469,-3.7618 -9.47297,-8.35955 z m 12.11602,-1.07865 c 4.30071,-9.96947 6.39114,-28.00146 4.32704,-37.32489 -0.53778,-2.42909 -1.7316,-3.47569 -5.66471,-4.96611 l -4.98334,-1.88841 -0.69971,7.52865 c -0.38485,4.14076 -0.962,7.95304 -1.28257,8.47173 -1.23746,2.00226 -4.32823,0.77701 -6.48277,-2.56991 -5.0086,-7.78048 -6.10542,-9.88141 -8.48886,-16.26013 -2.00427,-5.36399 -3.452,-7.35299 -7.46822,-10.26043 l -4.98198,-3.60658 0.0187,4.68523 c 0.0494,12.34493 6.1057,29.55872 14.63436,41.59485 4.61743,6.51637 16.87793,19.71959 18.3116,19.71959 0.3026,0 1.54479,-2.30561 2.76043,-5.12359 z M 415.36863,488.10239 c -9.75912,-2.21194 -27.43483,-11.19558 -35.4095,-17.99679 -21.8683,-18.65044 -33.00919,-46.68516 -28.35493,-71.3518 1.56963,-8.31873 8.39382,-22.67491 11.01354,-23.16941 0.99482,-0.18779 3.70917,1.03522 6.03189,2.71779 2.32273,1.68257 6.28973,3.99113 8.81558,5.13013 3.71964,1.67732 5.05519,3.1068 7.02733,7.52153 8.37366,18.74492 28.47419,34.07599 57.22003,43.64284 16.68238,5.55204 26.73265,6.94083 51.23122,7.07934 l 22.11236,0.12502 4.85394,3.59636 c 11.94476,8.85008 38.48398,17.71519 59.13822,19.75442 17.22822,1.70097 33.6919,-0.0884 48.18761,-5.23741 14.42674,-5.12447 16.7191,-5.529 16.7191,-2.95037 0,3.05177 -14.68284,17.27524 -22.8611,22.14586 -15.48852,9.22429 -34.32611,12.59804 -53.72316,9.62162 -16.79336,-2.57688 -36.43869,-15.57846 -48,-31.76711 -2.37303,-3.32283 -4.59663,-6.05197 -4.94133,-6.06477 -0.34469,-0.0128 -1.29044,1.21693 -2.10167,2.73272 -1.69303,3.16345 -14.13187,14.50905 -22.08059,20.13994 -7.2309,5.12238 -16.72059,9.77901 -25.88764,12.70316 -9.86686,3.14738 -38.14013,4.0863 -48.9909,1.62693 z m 43.74675,-3.81826 c 11.53093,-2.93866 21.87138,-8.04813 32.43534,-16.0271 7.58398,-5.72818 22.96611,-20.95314 22.96611,-22.73144 0,-0.31999 -9.58652,-0.60221 -21.30337,-0.62716 -17.63303,-0.0376 -23.40695,-0.46377 -33.51293,-2.47384 -23.19505,-4.61347 -44.05019,-13.56092 -58.2244,-24.97991 -6.96175,-5.60851 -15.59551,-15.88756 -18.3206,-21.81188 -1.0187,-2.21463 -2.21622,-4.03913 -2.66117,-4.05443 -0.80875,-0.0278 -1.21763,4.59658 -0.85589,9.68004 0.31887,4.48084 5.87936,15.26089 11.26521,21.8397 24.86374,30.37103 76.58989,43.063 113.16564,27.7673 4.04264,-1.6906 6.81837,-2.43294 6.16829,-1.64964 -1.56991,1.89162 -10.25512,5.57405 -17.75262,7.5269 -15.03216,3.91538 -37.27006,3.04327 -55.24857,-2.16669 -35.5583,-10.3044 -63.47813,-39.15174 -59.00888,-60.96919 l 1.08596,-5.30131 -7.85314,-4.31005 c -4.31923,-2.37053 -8.11053,-4.31006 -8.42511,-4.31006 -1.30797,0 -6.15083,11.28747 -7.74765,18.05778 -1.2068,5.11672 -1.54495,10.02432 -1.13407,16.45908 2.26652,35.49592 32.21717,66.2508 70.32909,72.21755 8.93616,1.39903 24.53837,0.43691 34.63276,-2.13565 z M 605.359,482.73938 c 9.9791,-3.48965 18.57741,-8.86877 27.29259,-17.0743 l 6.4495,-6.07234 -5.72867,2.13432 c -13.57274,5.05676 -26.43918,7.63239 -41.19268,8.24603 -17.45331,0.72594 -29.86051,-0.73272 -43.13779,-5.07153 -8.57793,-2.80314 -25.84883,-12.05267 -31.78875,-17.02465 -2.16856,-1.81518 -2.16822,-1.80416 0.0262,0.84988 1.22276,1.47891 4.78865,5.91853 7.9242,9.86584 9.5842,12.06544 21.8024,20.74515 35.15596,24.9745 8.20042,2.59725 9.78557,2.75812 23.73034,2.40829 10.73786,-0.26937 14.36267,-0.82087 21.26914,-3.23604 z m -24.75993,-14.28522 c -1.32667,-0.25603 -3.75364,-0.26265 -5.39326,-0.0147 -1.63962,0.24793 -0.55415,0.45741 2.41214,0.46551 2.96629,0.008 4.3078,-0.19476 2.98112,-0.45079 z m -17.5408,-2.5683 c -5.04153,-1.13689 -9.65277,-1.89844 -10.24719,-1.69233 -1.50451,0.52167 12.22017,3.68119 16.17765,3.72422 1.77978,0.0193 -0.88893,-0.895 -5.93046,-2.03189 z m 9.70575,-17.17224 c -12.88859,-2.07774 -38.83146,-12.46857 -38.83146,-15.55307 0,-0.91234 1.09213,-1.89307 2.42696,-2.1794 1.33483,-0.28633 6.55281,-1.32296 11.59551,-2.30363 32.2138,-6.26472 62.36969,-25.03282 85.02394,-52.9163 5.2927,-6.51441 13.13041,-19.60473 13.14018,-21.94637 0.007,-1.69379 5.55379,-5.41037 8.07459,-5.41037 2.30692,0 7.06935,6.3963 11.1618,14.99115 3.4415,7.22773 3.84439,9.06566 4.27425,19.49855 0.3618,8.78124 0.0362,13.03699 -1.36993,17.90772 -6.11547,21.18295 -23.05697,37.36224 -47.49585,45.35897 -7.50695,2.45638 -10.80358,2.86818 -25.34831,3.16636 -9.19551,0.18852 -19.38876,-0.0876 -22.65168,-0.61361 z m 33.13006,-2.79767 c 24.77751,-2.59614 46.97597,-18.10472 57.22302,-39.9779 2.72342,-5.81337 2.95028,-7.33869 2.95028,-19.83671 0,-13.44527 -0.0277,-13.59519 -4.00206,-21.63671 -7.14617,-14.45928 -11.55135,-15.48484 -12.94941,-3.01473 -1.13841,10.15416 -6.77149,20.76885 -15.70833,29.59999 -7.40829,7.32066 -20.25461,16.46964 -29.90199,21.2958 -10.29147,5.14837 -39.97173,16.08177 -51.63394,19.02055 l -11.72382,2.9543 5.25191,2.24417 c 9.41271,4.0221 26.6699,8.90457 34.92664,9.88158 7.82444,0.92586 12.61884,0.82641 25.5677,-0.53034 z m 0.30814,-37.22654 c 22.30913,-12.14422 37.91018,-29.17798 40.39548,-44.10516 0.70355,-4.22567 1.19277,-4.74191 -6.14668,6.48612 -8.12273,12.42631 -25.53203,29.82647 -37.92165,37.90173 -8.29974,5.40958 -6.53433,5.2737 3.67285,-0.28269 z m -167.73033,2.75136 c -1.18652,-0.27265 -4.82697,-1.03381 -8.08989,-1.69145 -6.84357,-1.37932 -12.85275,-4.19715 -18.60674,-8.72509 -6.76082,-5.32024 -5.79251,-5.90113 10.78652,-6.47094 13.04658,-0.44841 16.06464,-0.92569 25.07865,-3.96597 5.63595,-1.90091 13.43492,-5.06681 17.33104,-7.03533 6.81296,-3.44226 10.39483,-5.72628 39.5181,-25.19918 16.60748,-11.10439 32.44206,-19.05299 51.01602,-25.6089 43.94308,-15.51025 69.04435,-37.63477 77.55914,-68.36141 4.90203,-17.68957 3.74467,-32.09796 -3.82136,-47.57352 -7.42884,-15.19493 -25.93761,-29.91731 -40.04822,-31.85543 -10.89605,-1.49659 -13.05821,-2.47888 -15.35166,-6.97441 -2.95878,-5.7997 -2.76312,-6.89443 1.88682,-10.55657 9.98334,-7.86256 23.00337,-12.05409 37.52618,-12.08079 16.15663,-0.0297 30.38785,5.43902 41.70609,16.02668 16.70258,15.62445 23.72661,35.28781 21.27882,59.56889 -1.09378,10.84985 -1.59842,13.30808 -5.03478,24.52555 -2.60539,8.50487 -2.66171,9.18517 -1.04175,12.58228 3.30689,6.9346 4.45679,15.76032 3.21054,24.64156 -2.99031,21.3102 -18.73207,40.53764 -42.90353,52.40364 -13.59696,6.67487 -18.3611,8.06185 -40.98876,11.93301 -33.89277,5.79841 -46.45089,10.62164 -71.73034,27.54966 -26.48979,17.73851 -34.02503,21.49517 -49.75144,24.80332 -7.74622,1.62947 -25.89943,2.89856 -29.52945,2.0644 z m 25.88764,-4.73322 c 18.27908,-3.89316 25.75579,-7.44606 47.99999,-22.8094 25.23591,-17.4296 38.9418,-23.12406 68.49438,-28.45775 28.68408,-5.17693 39.93438,-8.4189 51.11799,-14.73054 30.72135,-17.33806 44.93676,-44.88248 35.70234,-69.17846 -1.1798,-3.10408 -2.14533,-6.45439 -2.14563,-7.44515 -3e-4,-0.99076 1.74957,-7.78626 3.8886,-15.10112 3.28094,-11.21985 3.9122,-15.07096 4.03657,-24.62559 0.0845,-6.48968 -0.48233,-13.85907 -1.32738,-17.25843 -2.23931,-9.00794 -7.84353,-20.33907 -13.42882,-27.1516 -6.30242,-7.68725 -19.11032,-16.33195 -28.54286,-19.26503 -11.82111,-3.67582 -30.19344,-2.83882 -39.43341,1.79649 -4.90348,2.45987 -15.77946,9.45922 -15.79055,10.16217 -0.005,0.32901 1.63356,2.39193 3.64166,4.58427 2.65999,2.90403 4.53238,3.98606 6.89762,3.98606 1.78559,0 6.33136,0.92332 10.10171,2.05182 3.77036,1.1285 10.59668,2.85597 15.1696,3.83882 18.24658,3.92168 30.53289,13.69176 39.21728,31.1856 4.29248,8.64676 5.08329,11.34131 6.15033,20.95602 1.84492,16.62392 -0.35038,28.96794 -8.09511,45.5183 -4.42545,9.4571 -18.6842,23.61073 -29.95891,29.73805 -9.52255,5.17509 -15.2798,7.29166 -37.92978,13.94434 -36.29934,10.66174 -52.77847,18.43842 -84.48071,39.86736 -32.2449,21.79574 -47.27228,28.12304 -70.11637,29.52258 l -11.86517,0.72692 5.39326,3.22804 c 11.51403,6.89153 27.75435,8.65389 45.30337,4.91623 z m 133.8472,-85.81599 c 30.46352,-10.40902 47.60777,-27.51564 54.4871,-54.36749 2.50867,-9.792 2.69473,-25.14345 0.41352,-34.11768 -3.71884,-14.62981 -13.43554,-29.18123 -23.95024,-35.86712 -3.92584,-2.49629 -17.03004,-7.77523 -19.30087,-7.77523 -0.16735,0 4.01732,4.26844 9.29928,9.48544 14.01913,13.8467 19.42467,26.67837 19.38752,46.02207 -0.0582,30.29749 -15.39733,56.00682 -44.16033,74.01539 -5.61084,3.51296 -9.53659,6.3872 -8.7239,6.3872 0.8127,0 6.45926,-1.70216 12.54792,-3.78258 z M 327.37077,387.1083 c -18.45988,-9.46376 -30.39582,-23.6644 -37.45148,-44.55744 -7.80147,-23.10156 -4.02094,-49.58146 10.19324,-71.3963 5.529,-8.48548 21.04013,-25.22199 23.37534,-25.22199 1.43465,0 2.35869,2.08287 5.50312,12.4045 1.26513,4.1528 3.5274,9.4304 5.02726,11.72799 3.08988,4.73328 3.01302,5.8386 -1.23333,17.7353 -7.78134,21.80047 -2.59924,52.12084 11.7699,68.86547 2.11731,2.46734 3.84966,4.96611 3.84966,5.55282 0,0.58671 -1.21153,3.17921 -2.69227,5.76112 -1.48075,2.5819 -3.92332,8.69886 -5.42793,13.59324 -3.17196,10.31812 -3.39647,10.41435 -12.91351,5.53529 z m 8.86891,-4.66868 c 1.08357,-3.53058 0.90832,-3.97109 -3.48264,-8.75375 -5.78074,-6.29642 -14.54858,-23.01262 -18.20642,-34.71122 -5.29234,-16.92609 -5.59309,-41.92236 -0.69399,-57.67956 1.23878,-3.98432 4.42234,-10.48029 7.07459,-14.43549 4.65009,-6.93449 4.77765,-7.3402 3.57253,-11.36252 -0.68735,-2.29419 -1.675,-4.17125 -2.19478,-4.17125 -2.07091,0 -14.70118,14.65544 -20.36751,23.63329 -8.20196,12.99535 -11.87164,24.37126 -12.5915,39.03337 -0.41955,8.54545 -0.0939,13.53124 1.29024,19.75258 2.63514,11.84445 10.12246,26.17216 18.21197,34.85035 6.77772,7.27094 21.0807,17.56186 24.4086,17.56186 1.15527,0 2.26173,-1.38085 2.97891,-3.71766 z m 6.83557,-16.31078 2.02661,-3.30934 -4.44131,-5.8592 c -14.8202,-19.55156 -18.55583,-47.23654 -9.88724,-73.27492 l 2.69325,-8.08989 -3.49414,-6.37869 -3.49414,-6.37868 -2.43527,3.05412 c -12.9426,16.23157 -15.93247,47.77101 -7.02489,74.10379 4.62669,13.67751 11.37383,26.02925 18.33167,33.55911 l 2.8075,3.0383 1.44567,-3.57763 c 0.79513,-1.96769 2.35766,-5.06683 3.47229,-6.88697 z m 343.57252,19.75878 c -0.27192,-1.33483 -0.71022,-5.3469 -0.97399,-8.91571 -0.68751,-9.30219 -5.07271,-20.89343 -11.4733,-30.32699 l -5.54651,-8.17476 5.98713,-8.9058 c 11.42435,-16.99363 16.45299,-34.10185 15.37575,-52.31076 -0.33472,-5.65803 -1.35384,-12.69576 -2.2647,-15.63942 -1.51484,-4.89553 -1.49964,-5.79267 0.17824,-10.51685 1.0089,-2.84062 2.48455,-5.16476 3.27924,-5.16476 2.36889,0 13.44404,11.25686 19.89453,20.22094 13.61,18.91348 17.47448,30.53452 17.48775,52.58805 0.01,15.91149 -1.53353,23.29025 -7.20252,34.44054 -5.66205,11.13667 -18.22624,25.56601 -28.52223,32.75633 -4.29852,3.00193 -5.59966,2.9913 -6.21939,-0.0508 z m 12.00864,-9.24826 c 5.86722,-4.90221 15.985,-17.47253 19.20252,-23.85716 7.79313,-15.46422 10.14608,-35.62091 6.04927,-51.82158 -4.15837,-16.44414 -13.30278,-32.2255 -25.86403,-44.63597 -5.81398,-5.7442 -6.46966,-6.11981 -7.11785,-4.07756 -0.51149,1.61157 0.49836,4.03468 3.56109,8.54475 8.00492,11.78776 10.95151,22.53861 10.94928,39.94924 -0.003,21.96125 -6.2935,44.05191 -17.04542,59.85739 -1.89351,2.78348 -1.94248,3.51677 -0.61235,9.16854 0.79518,3.37869 1.45335,8.02274 1.46262,10.3201 0.0191,4.73409 -0.68706,4.99269 9.41487,-3.44775 z m -7.49606,-24.72927 c 4.59142,-8.9268 8.98363,-21.55081 11.16487,-32.08988 2.00904,-9.70702 1.69734,-28.76208 -0.61755,-37.75281 -1.97148,-7.65697 -6.48594,-17.64219 -9.75347,-21.57303 l -1.79327,-2.1573 0.76891,2.1573 c 0.4229,1.18652 1.00844,8.7784 1.30121,16.87086 0.79376,21.9404 -2.80678,35.73058 -13.80598,52.87736 l -5.5259,8.61439 4.98645,7.43218 c 2.74255,4.0877 5.50007,8.90555 6.12783,10.70633 0.62775,1.80079 1.52519,3.27415 1.99431,3.27415 0.46911,0 2.78778,-3.76179 5.15259,-8.35955 z m -286.12666,24.02887 c -22.73608,-4.19885 -39.07009,-14.4309 -50.16289,-31.42336 -6.77954,-10.38522 -9.05768,-18.57821 -9.11626,-32.78528 -0.0756,-18.34519 1.37032,-20.33459 9.77444,-13.44805 7.61863,6.24289 19.54199,13.12519 26.18792,15.11596 6.19163,1.85469 6.25015,1.91157 10.81561,10.51284 10.5913,19.95387 26.52712,35.78238 44.5697,44.26955 9.96283,4.68649 9.77128,6.56068 -0.83169,8.13768 -10.33079,1.53651 -21.60408,1.39961 -31.23683,-0.37934 z m 28.9758,-2.33316 5.00725,-0.68632 -5.25358,-2.43402 c -2.88947,-1.33871 -8.59409,-4.81799 -12.67692,-7.73173 -4.08284,-2.91374 -11.7867,-7.20612 -17.1197,-9.53863 -5.333,-2.33251 -12.45463,-6.08282 -15.82585,-8.33403 -13.51027,-9.02181 -23.55644,-22.30398 -23.55644,-31.14426 0,-3.72837 -0.56322,-4.4659 -7.26206,-9.50955 -8.51689,-6.4125 -8.72324,-6.26156 -8.8419,6.46745 -0.24509,26.29227 16.71626,48.80373 44.35504,58.86895 10.7294,3.90733 29.04168,5.70508 41.17416,4.04214 z M 401.9543,344.28379 c -3.74561,-4.6394 -8.92056,-12.39603 -11.4999,-17.23694 -4.49219,-8.43092 -4.91998,-8.87693 -10.15634,-10.58898 -3.00664,-0.98303 -7.33388,-2.72544 -9.61609,-3.87201 -2.28221,-1.14658 -4.43192,-1.80224 -4.77713,-1.45703 -0.34521,0.34522 0.20562,3.27113 1.22407,6.50204 2.25711,7.16036 8.2916,15.0046 16.7493,21.77242 6.17677,4.94262 20.89929,13.24981 23.5602,13.29385 0.72934,0.0121 -1.73851,-3.77394 -5.48411,-8.41335 z m 86.53119,-20.69464 c -8.87413,-1.02172 -17.86281,-3.08994 -28.9799,-6.66803 -23.95294,-7.70938 -48.42096,-28.2539 -57.60899,-48.37126 -12.45548,-27.27152 -5.34656,-54.10226 17.38625,-65.61981 4.63767,-2.34967 8.94185,-3.02103 8.94185,-1.39474 0,0.49836 -0.97079,4.70185 -2.15731,9.34108 -3.95505,15.46411 -2.16292,30.8723 5.44596,46.82274 3.47047,7.27512 6.08121,10.8216 13.19316,17.9218 14.75536,14.731 24.40503,18.12797 51.47324,18.12013 22.20762,-0.006 33.92805,-2.41082 49.58627,-10.1724 9.49504,-4.70657 12.67705,-6.99028 19.97559,-14.33633 12.9284,-13.01256 19.09046,-26.43528 20.60007,-44.87279 0.45569,-5.56548 0.15094,-10.27003 -0.9766,-15.07651 -0.90143,-3.84264 -1.40713,-7.36174 -1.12377,-7.82022 2.10697,-3.40916 14.16899,2.33543 22.40908,10.67244 10.01438,10.13217 14.22228,21.48955 13.31117,35.92765 -2.57408,40.79052 -50.36972,73.78712 -110.06948,75.98848 -7.24515,0.26716 -16.87812,0.0591 -21.40659,-0.46223 z m 48.68302,-5.81872 c 10.8418,-2.48859 24.30192,-6.90672 23.49627,-7.71238 -0.21062,-0.21061 -4.00591,0.54093 -8.43398,1.6701 -13.57879,3.46261 -33.18641,6.54178 -46.04496,7.23089 -6.73346,0.36086 -12.54511,1.14548 -12.91478,1.74361 -1.29666,2.09804 31.53767,-0.0952 43.89745,-2.93222 z m -11.86517,-2.76931 c 24.32041,-3.76192 41.92628,-8.51259 53.74778,-14.50299 25.47409,-12.9087 42.08457,-42.29156 36.81712,-65.12708 -2.65295,-11.50112 -12.49551,-24.18688 -22.60984,-29.14112 -6.70307,-3.28331 -6.71641,-1.67914 -0.094,11.29044 6.70278,13.12686 8.61944,22.4317 6.90377,33.51584 -2.5421,16.42336 -11.02243,26.41614 -27.09574,31.92822 -13.68368,4.69258 -55.12062,13.14285 -69.78149,14.23059 -18.18375,1.34911 -40.2876,-2.75204 -49.5993,-9.20266 -7.06084,-4.89136 -17.87595,-16.41292 -22.34613,-23.80582 -5.3879,-8.91063 -8.26007,-18.21039 -9.96836,-32.27644 l -1.37549,-11.32584 -2.01494,4.3146 c -2.99734,6.41824 -2.77858,21.70043 0.42626,29.77649 5.39326,13.59081 16.56461,26.00386 29.53805,32.82121 4.30701,2.26327 7.25133,4.30823 6.54294,4.54436 -3.10741,1.03581 -16.56513,-7.67475 -24.07979,-15.58573 -16.55324,-17.42626 -21.47691,-40.14936 -12.17592,-56.19278 1.47836,-2.55005 3.60515,-7.3024 4.7262,-10.56078 l 2.03826,-5.92432 -5.39169,2.93452 c -14.5336,7.91018 -23.03637,25.4768 -20.38002,42.10486 2.33623,14.62422 9.06033,26.84614 21.55739,39.1833 10.00046,9.8725 11.38415,11.0505 14.27782,12.15536 1.0382,0.39641 1.88764,1.19124 1.88764,1.76629 0,1.54828 16.3291,9.44057 24.67508,11.92611 3.98778,1.18761 10.62455,2.62576 14.74838,3.1959 10.23146,1.41454 32.73844,0.47685 49.02597,-2.04253 z m 42.60674,-32.0898 c 15.85216,-4.89292 24.84567,-12.72403 28.61029,-24.91242 2.35248,-7.61644 2.74966,-17.82599 0.952,-24.47082 -1.49543,-5.52766 -6.44373,-16.7191 -7.39235,-16.7191 -0.39956,0 -0.81756,3.48194 -0.92889,7.73765 -0.22091,8.44442 -3.58877,22.65973 -6.98335,29.47583 -2.39234,4.80365 -10.48242,16.47939 -10.48242,15.1284 0,-0.47478 -1.48426,1.02373 -3.29837,3.33002 -1.8141,2.30629 -4.60511,4.9335 -6.20224,5.83823 -7.65963,4.33897 -13.15107,7.77616 -13.15107,8.23149 0,0.98424 10.38161,-1.01729 18.8764,-3.63928 z m -194.08294,9.93448 c -26.75607,-18.5806 -41.29341,-55.76132 -33.8985,-86.69884 1.93103,-8.07872 9.96129,-23.99562 14.90685,-29.54711 6.17942,-6.93651 16.22334,-13.86767 25.38921,-17.5207 10.05187,-4.00614 25.82814,-4.92546 37.1041,-2.16214 8.41608,2.06246 18.45992,7.50413 23.0352,12.48026 l 2.97077,3.23104 -4.01038,5.37174 c -4.29851,5.75769 -4.53298,5.88684 -12.71624,7.00435 -18.11936,2.47439 -36.49986,18.14292 -43.41838,37.01216 -3.33692,9.10095 -4.44807,25.7212 -2.3561,35.24185 1.88,8.55599 1.61781,38.72993 -0.33938,39.05627 -0.74153,0.12364 -3.74175,-1.43736 -6.66715,-3.46888 z m 3.23576,-2.7971 c -4.61267,-5.48184 -11.22137,-20.37084 -13.12809,-29.57678 -2.17404,-10.49666 -1.55961,-28.54769 1.24237,-36.49875 4.81408,-13.66072 15.89016,-26.4687 27.64757,-31.97065 7.32133,-3.42606 27.31581,-9.38284 35.05495,-10.44361 3.83432,-0.52555 5.35204,-1.44859 8.11229,-4.93368 l 3.39551,-4.28718 -2.61511,-2.0523 c -1.43831,-1.12876 -6.70436,-4.10707 -11.70233,-6.61846 l -9.08722,-4.56617 h -14.18511 -14.18511 l -9.08722,4.5361 c -15.05177,7.51345 -23.84626,16.14319 -30.55311,29.98075 -2.0128,4.15281 -4.29675,10.22022 -5.07543,13.48314 -1.94015,8.12983 -1.66871,25.85763 0.53603,35.00882 2.40495,9.98222 10.41963,25.88865 16.96367,33.66717 4.27449,5.08083 17.59908,17.32056 19.11504,17.55871 0.20105,0.0316 -0.90087,-1.44761 -2.4487,-3.28711 z m 0.833,-31.17231 c -4.71164,-23.44491 1.52944,-45.04423 17.71127,-61.2957 8.19062,-8.22586 7.81917,-8.82543 -2.31222,-3.73228 -6.94944,3.49356 -15.12488,11.20073 -20.26841,19.10748 -12.51842,19.2436 -11.89126,46.23101 1.61861,69.65084 l 3.42225,5.93258 0.61876,-11.32584 c 0.4057,-7.42593 0.13359,-13.74008 -0.79026,-18.33708 z m 89.91612,15.12828 c -25.73926,-16.32336 -34.41049,-46.63165 -20.99277,-73.37547 5.06202,-10.08947 16.01424,-20.52093 27.17087,-25.87894 12.03128,-5.77806 20.64415,-7.79106 33.51547,-7.83325 32.6402,-0.107 58.12922,18.95211 62.22171,46.52554 2.47043,16.6447 -2.25615,30.54289 -14.48151,42.5819 -12.5805,12.38874 -25.54617,17.62177 -46.39188,18.72406 -11.0352,0.58353 -11.59551,0.5102 -11.59551,-1.51761 0,-1.59323 3.06128,-3.8439 12.13483,-8.92159 21.69917,-12.14316 24.54343,-14.54436 29.95718,-25.2906 7.19047,-14.27303 1.3755,-31.57817 -12.85304,-38.25015 -5.51997,-2.5884 -7.22505,-2.83599 -19.5311,-2.83599 -11.9921,0 -13.99548,0.27356 -18.11602,2.47369 -16.31135,8.70931 -21.69834,24.63938 -13.34028,39.44905 3.08488,5.4661 3.17037,5.98044 2.277,13.69853 -0.51052,4.41055 -0.94953,11.53828 -0.97558,15.8394 -0.056,9.24805 -0.95876,9.71063 -8.99937,4.61143 z m 1.43694,-7.86586 c -5.46039,-12.04265 -6.89728,-18.66017 -6.97491,-32.12268 -0.071,-12.30693 -0.0229,-12.55477 4.0206,-20.74089 5.03719,-10.19781 12.65432,-18.2398 20.96474,-22.13408 5.73026,-2.68521 7.2928,-2.91542 19.70688,-2.90339 17.16206,0.0166 23.39918,2.17983 32.48663,11.26728 9.47757,9.47758 11.19876,13.54624 11.19876,26.47247 0,9.75019 -0.27617,11.25286 -2.87449,15.64045 -4.50035,7.59941 -9.08543,11.22985 -23.01315,18.2217 -7.1191,3.57386 -14.88539,7.76266 -17.25843,9.30844 l -4.3146,2.81052 7.63066,-0.52988 c 26.61194,-1.84799 47.0433,-15.60039 54.04263,-36.37624 3.0387,-9.01967 2.56953,-22.2826 -1.10411,-31.21211 -8.43946,-20.51373 -29.88988,-33.63553 -55.17593,-33.75259 -19.82039,-0.0918 -35.72901,6.18394 -48.81621,19.25721 -8.81988,8.81048 -12.37164,15.38123 -14.94559,27.64922 -4.04574,19.28293 4.37087,39.06795 22.23372,52.26505 2.66966,1.97235 4.94483,3.59812 5.05594,3.61283 0.11111,0.0147 -1.1773,-3.01528 -2.86314,-6.73331 z m 2.94731,-25.32244 c -6.39468,-13.05702 -4.87198,-24.79931 4.55319,-35.11195 7.17076,-7.84596 13.69041,-10.62573 26.44153,-11.27383 26.72984,-1.3586 42.1105,10.39395 41.99155,32.08625 -0.0475,8.65523 -2.21277,15.09505 -7.59639,22.5923 -1.76436,2.45705 -0.59831,1.59713 3.24576,-2.39364 9.51445,-9.87755 11.62319,-21.32139 6.19153,-33.60056 -2.44963,-5.5378 -9.80787,-13.89757 -15.24819,-17.32361 -12.36223,-7.78513 -33.52962,-8.51243 -46.4529,-1.5961 -8.28841,4.43582 -16.60298,15.8767 -19.93472,27.43026 -3.5093,12.16926 -0.005,35.80104 6.79241,45.80022 1.86857,2.74889 1.89445,2.6638 2.60082,-8.54932 0.70006,-11.11283 0.65144,-11.4525 -2.58459,-18.06002 z M 319.88956,197.70943 c -0.58537,-1.53729 -0.46147,-1.66119 0.60382,-0.60382 0.73717,0.73168 1.06859,1.60206 0.73649,1.93416 -0.33211,0.3321 -0.93524,-0.26655 -1.34031,-1.33034 z m 133.96586,-36.37744 c -1.62446,-2.03591 -5.6232,-5.555 -8.8861,-7.8202 -3.26291,-2.26519 -5.9383,-4.7717 -5.94533,-5.57 -0.0411,-4.66835 16.42384,-19.39914 28.90196,-25.85792 13.20924,-6.8372 21.45728,-8.98612 36.92293,-9.61978 16.42188,-0.67283 26.48451,1.45245 41.48817,8.76256 14.26369,6.94957 31.81595,22.62919 30.10548,26.89353 -0.28086,0.70019 -2.3497,2.5767 -4.59743,4.17003 -2.24774,1.59333 -6.57838,5.13711 -9.62364,7.87506 l -5.53685,4.97811 -7.34031,-3.79862 c -16.55743,-8.56848 -33.03672,-11.68632 -50.19826,-9.4974 -13.67223,1.74387 -21.38018,3.90887 -31.75653,8.91973 -4.85936,2.34663 -9.2279,4.2666 -9.70787,4.26658 -0.47997,-2e-5 -2.20177,-1.66578 -3.82622,-3.70168 z m 9.80301,-4.37494 c 11.37424,-8.17157 23.34827,-12.14535 39.53256,-13.11952 18.23959,-1.09788 34.88683,2.76868 48.40044,11.24169 l 6.7836,4.2533 4.76752,-4.43913 c 2.62215,-2.44152 5.98102,-5.26672 7.46416,-6.27822 l 2.69663,-1.8391 -8.62921,-8.44257 c -14.76521,-14.44586 -35.44367,-22.91778 -55.93827,-22.91778 -22.29526,0 -41.46641,7.70199 -57.54233,23.11755 l -9.07548,8.70268 7.15828,5.25033 c 3.93706,2.88768 7.41579,5.92139 7.73053,6.74157 0.76511,1.99386 0.67055,2.02614 6.65157,-2.2708 z m 88.07188,0.90864 c -4.11401,-3.25363 -15.22329,-7.93149 -24.26815,-10.21874 -7.75264,-1.96048 -11.08006,-2.21257 -22.61328,-1.71324 -13.96503,0.60463 -22.22248,2.48626 -30.78149,7.01423 -5.00535,2.64797 -4.34563,3.09584 1.16725,0.79242 12.57286,-5.25328 40.79743,-6.61762 56.07392,-2.71056 4.67918,1.19674 11.43098,3.58412 15.004,5.3053 7.53716,3.63076 8.37122,3.8664 5.41775,1.53059 z"
       id="path1" />
  </g>
</svg>
