<svg xmlns="http://www.w3.org/2000/svg" version="1.1" xmlns:xlink="http://www.w3.org/1999/xlink" xmlns:svgjs="http://svgjs.dev/svgjs" viewBox="0 0 800 800"><defs><linearGradient x1="50%" y1="0%" x2="50%" y2="100%" id="wwwhirl-grad"><stop stop-color="hsl(162, 100%, 58%)" stop-opacity="1" offset="45%"></stop><stop stop-color="hsl(270, 73%, 53%)" stop-opacity="1" offset="100%"></stop></linearGradient></defs><g stroke-width="5" stroke="url(#wwwhirl-grad)" fill="none" stroke-linecap="round"><path d="M37.00000251770027 462.7343325439454C50.75000289917 435.50933178863534 75.50000358581553 332.05432891845703 103.000004348755 332.05432891845703C130.50000511169446 332.05432891845703 141.5000054168703 449.5343321777345 169.00000617980973 462.7343325439454C196.5000069427492 475.93433291015634 207.50000724792503 404.48933092803964 235.00000801086446 395.41433067626957C262.500008773804 386.33933042449956 273.5000090789798 423.29933144989025 301.0000098419193 419.1743313354493C328.50001060485874 415.04933122100834 339.5000109100345 369.4268299552918 367.000011672974 375.6143301269532C394.50001243591345 381.80183029861456 405.5000127410893 450.52433220520027 433.0000135040287 448.87433215942394C460.5000142669682 447.22433211364756 471.50001457214404 363.7755797985077 499.0000153350834 367.6943299072266C526.5000160980228 371.61308001594546 537.5000164031987 462.5280825382234 565.0000171661382 467.68433268127455C592.5000179290777 472.8405828243257 603.5000182342535 400.07558080558783 631.000018997193 392.4443305938721C658.5000197601325 384.8130803821564 669.5000200653083 436.6230818195344 697.0000208282477 431.0543316650392C724.5000215911871 425.4855815105439 749.2500222778326 379.32683022995 763.0000226593024 365.71432985229495 " transform="rotate(140.25, 400, 400)"></path><path d="M48.00000244140632 460.83330002441414C61.33333614464971 434.4332992919923 85.3333368104878 334.11329650878906 112.00000421697456 334.11329650878906C138.6666716234613 334.11329650878906 149.33333858605602 448.0332996693005 176.00000599254278 460.83330002441414C202.66667339902952 473.6333003795278 213.33334036162427 404.3532984574752 240.000007768111 395.5532982133346C266.6666751745978 386.7532979691939 277.3333421371925 422.59329896351215 304.00000954367925 418.59329885253914C330.66667695016605 414.5932987415661 341.3333439127607 370.3532975142046 368.00001131924745 376.3532976806641C394.66667872573424 382.3532978471236 405.33334568832896 448.993299695934 432.00001309481576 447.39329965154485C458.66668050130244 445.79329960715563 469.3333474638972 364.87329736217157 496.0000148703839 368.6732974675959C522.6666822768707 372.47329757302026 533.3333492394653 460.6333000188655 560.0000166459522 465.6333001575818C586.666684052439 470.633300296298 597.3333510150337 400.07329833873405 624.0000184215204 392.673298133434C650.6666858280073 385.2732979281339 661.3333527906019 435.51329932195495 688.0000201970887 430.1132991721414C714.6666876035754 424.7132990223279 738.6666882694134 379.9532977805398 752.0000219726569 366.75329741432887 " transform="rotate(136, 400, 400)"></path><path d="M59.00000236511238 458.93225224609387C71.9166693901294 433.35725153656017 95.16667003516005 336.17224884033203 121.00000408519412 336.17224884033203C146.83333813522813 336.17224884033203 157.1666717552418 446.5322519020775 183.0000058052758 458.93225224609387C208.83333985530987 471.3322525901102 219.1666734753235 404.2172507281217 245.00000752535757 395.6922504916105C270.8333415753916 387.16725025509925 281.1666751954052 421.887251218345 307.0000092454393 418.0122511108399C332.83334329547336 414.13725100333477 343.16667691548696 371.2797498143283 369.00001096552097 377.09224997558596C394.83334501555504 382.90475013684363 405.1666786355687 447.4622519278787 431.0000126856027 445.9122518848767C456.8333467356368 444.36225184187464 467.16668035565044 365.9709996670463 493.0000144056845 369.65224976917614C518.8333484557185 373.333499871306 529.1666820757321 458.7385022407186 555.0000161257661 463.5822523751C580.8333501758003 468.42600250948135 591.1666837958139 400.07100061309126 617.000017845848 392.90225041420683C642.8333518958821 385.73350021532235 653.1666855158957 434.4035015655865 679.0000195659296 429.17225142045464C704.8333536159636 423.9410012753227 728.0833542609943 380.5797500723406 741.0000212860114 367.7922497175737 " transform="rotate(131.75, 400, 400)"></path><path d="M70.00000228881842 457.03121209716807C82.50000263560909 432.28121141052253 105.00000325983231 338.23120880126953 130.00000395341365 338.23120880126953C155.00000464699497 338.23120880126953 165.00000492442751 445.031211764249 190.00000561800886 457.03121209716807C215.0000063115902 469.03121243008707 225.00000658902275 404.0812106281628 250.00000728260406 395.83121039928096C275.00000797618543 387.5812101703991 285.000008253618 421.18121110257243 310.0000089471993 417.4312109985352C335.00000964078066 413.681210894498 345.00000991821315 372.20620974384656 370.0000106117945 377.8312098999024C395.00001130537584 383.4562100559582 405.0000115828084 445.93121178921797 430.0000122763897 444.4312117476031C455.000012969971 442.9312117059882 465.0000132474036 367.0687096013156 490.00001394098496 370.631209700151C515.0000146345662 374.1937097989863 525.0000149119987 456.8437120919662 550.0000156055801 461.5312122220127C575.0000162991615 466.2187123520592 585.000016576594 400.068710516843 610.0000172701755 393.13121032437414C635.0000179637568 386.19371013190533 645.0000182411893 433.2937114386126 670.0000189347705 428.23121129816235C695.0000196283519 423.16871115771215 717.5000202525752 381.2062099935359 730.0000205993658 368.8312096502131 " transform="rotate(127.5, 400, 400)"></path><path d="M81.00000221252448 455.13017194824226C93.08333588108879 431.20517128448495 114.83333648450457 340.29016876220703 139.0000038216332 340.29016876220703C163.1666711587618 340.29016876220703 172.83333809361326 443.53017162642055 197.0000054307419 455.13017194824226C221.16667276787052 466.73017227006403 230.833339702722 403.94517052820385 255.00000703985063 395.9701703069514C279.16667437697924 387.99517008569893 288.83334131183074 420.47517098679987 313.00000864895935 416.85017088623056C337.16667598608797 413.22517078566125 346.8333429209394 373.13266967336483 371.000010258068 378.5701698242188C395.16667759519663 384.0076699750727 404.8333445300481 444.4001716505572 429.00001186717674 442.95017161032945C453.16667920430535 441.50017157010177 462.8333461391569 368.1664195355849 487.00001347628546 371.61016963112576C511.1666808134141 375.05391972666655 520.8333477482655 454.9489219432138 545.0000150853941 459.4801720689254C569.1666824225229 464.011422194637 578.8333493573742 400.0664204205947 603.000016694503 393.3601702345415C627.1666840316316 386.6539200484883 636.8333509664831 432.18392131163864 661.0000183036116 427.2901711758701C685.1666856407402 422.39642104010153 706.9166862441559 381.8326699147311 719.0000199127203 369.87016958285244 " transform="rotate(123.25, 400, 400)"></path><path d="M92.00000213623053 453.2291317993165C103.6666691265685 430.1291311584473 124.66666970917683 342.34912872314453 148.00000368985275 342.34912872314453C171.33333767052864 342.34912872314453 180.666671262799 442.02913148859204 204.00000524347493 453.2291317993165C227.33333922415085 464.42913211004094 236.66667281642125 403.8091304282449 260.00000679709717 396.10913021462187C283.33334077777306 388.4091300009988 292.66667437004344 419.76913087102724 316.0000083507193 416.26913077392584C339.3333423313953 412.7691306768245 348.66667592366565 374.0591296028831 372.00000990434154 379.30912974853516C395.3333438850174 384.55912989418727 404.6666774772878 442.8691315118964 428.00001145796375 441.4691314730558C451.3333454386397 440.0691314342153 460.6666790309101 369.2641294698542 484.000013011586 372.58912956210054C507.33334699226185 375.9141296543468 516.6666805845323 453.05413179446145 540.0000145652082 457.4291319158382C563.3333485458841 461.8041320372149 572.6666821381544 400.0641303243464 596.0000161188304 393.58913014470886C619.3333500995063 387.1141299650713 628.6666836917767 431.07413118466474 652.0000176724526 426.3491310535778C675.3333516531285 421.62413092249096 696.3333522357368 382.45912983592643 708.0000192260748 370.9091295154918 " transform="rotate(119, 400, 400)"></path><path d="M103.00000205993659 451.3280916503907C114.25000237204819 429.0530910324097 134.5000029338491 344.40808868408203 157.00000355807228 344.40808868408203C179.50000418229547 344.40808868408203 188.5000044319848 440.5280913507636 211.00000505620795 451.3280916503907C233.50000568043117 462.12809195001785 242.50000593012047 403.673090328286 265.0000065543437 396.2480901222923C287.5000071785669 388.8230899162986 296.5000074282562 419.0630907552546 319.0000080524794 415.6880906616211C341.5000086767026 412.3130905679877 350.50000892639184 374.9855895324014 373.00000955061506 380.0480896728516C395.5000101748383 385.11058981330183 404.5000104245276 441.3380913732356 427.00001104875076 439.9880913357822C449.500011672974 438.63809129832885 458.5000119226633 370.3618394041235 481.00001254688647 373.5680894930753C503.50001317110963 376.7743395820271 512.5000134207988 451.15934164570905 535.0000140450221 455.3780917627509C557.5000146692455 459.5968418797927 566.5000149189347 400.06184022809816 589.0000155431579 393.81809005487617C611.5000161673811 387.5743398816543 620.5000164170704 429.9643410576908 643.0000170412935 425.4080909312856C665.5000176655168 420.85184080488034 685.7500182273176 383.08558975712174 697.0000185394292 371.9480894481312 " transform="rotate(114.75, 400, 400)"></path><path d="M114.00000198364263 449.4270515014649C124.83333561752788 427.97705090637214 144.33333615852135 346.46704864501953 166.0000034262918 346.46704864501953C187.6666706940623 346.46704864501953 196.3333376011705 439.0270512129351 218.000004868941 449.4270515014649C239.6666721367115 459.82705178999475 248.3333390438197 403.537050228327 270.0000063115902 396.3870500299628C291.6666735793607 389.2370498315985 300.33334048646896 418.35705063948205 322.0000077542394 415.10705054931645C343.6666750220099 411.85705045915086 352.3333419291181 375.91204946191965 374.0000091968886 380.787049597168C395.6666764646591 385.66204973241634 404.3333433717673 439.8070512345748 426.0000106395378 438.5070511985086C447.66667790730827 437.2070511624424 456.3333448144165 371.4595493383928 478.00001208218697 374.5470494240501C499.66667934995746 377.63454950970737 508.33334625706556 449.26455149695664 530.0000135248362 453.3270516096636C551.6666807926067 457.3895517223706 560.3333476997147 400.05955013184985 582.0000149674854 394.0470499650435C603.6666822352558 388.0345497982372 612.3333491423641 428.85455093071687 634.0000164101345 424.4670508089933C655.666683677905 420.0795506872698 675.1666842188985 383.712049678317 686.0000178527837 372.9870493807706 " transform="rotate(110.5, 400, 400)"></path><path d="M125.00000190734869 447.5260113525392C135.41666886300757 426.90101078033456 154.1666693831936 348.52600860595703 175.00000329451137 348.52600860595703C195.83333720582914 348.52600860595703 204.16667077035626 437.5260110751066 225.00000468167406 447.5260113525392C245.83333859299182 457.52601162997166 254.16667215751897 403.40101012836806 275.00000606883674 396.5260099376332C295.8333399801545 389.65100974689835 304.16667354468166 417.65101052370943 325.0000074559994 414.5260104370118C345.8333413673172 411.4010103503141 354.16667493184434 376.8385093914379 375.00000884316205 381.5260095214844C395.8333427544799 386.2135096515309 404.166676319007 438.27601109591404 425.0000102303248 437.02601106123495C445.83334414164256 435.7760110265559 454.1666777061697 372.5572592726621 475.0000116174875 375.5260093550249C495.83334552880524 378.49475943738764 504.1666790933323 447.3697613482043 525.0000130046501 451.2760114565764C545.8333469159679 455.1822615649484 554.166680480495 400.0572600356016 575.0000143918128 394.2760098752109C595.8333483031306 388.4947597148202 604.1666818676579 427.7447608037429 625.0000157789755 423.52601068670106C645.8333496902933 419.3072605696592 664.5833502104794 384.3385095995123 675.0000171661382 374.02600931341 " transform="rotate(106.25, 400, 400)"></path><path d="M136.00000183105476 445.62497120361337C146.00000210848728 425.8249706542969 164.00000260786584 350.58496856689453 184.00000316273093 350.58496856689453C204.00000371759597 350.58496856689453 212.000003939542 436.0249709372781 232.00000449440708 445.62497120361337C252.00000504927215 455.22497146994857 260.0000052712182 403.26497002840915 280.0000058260833 396.66496984530363C300.0000063809483 390.06496966219817 308.00000660289436 416.94497040793686 328.00000715775946 413.94497032470707C348.00000771262455 410.94497024147734 356.00000793457053 377.7649693209562 376.0000084894356 382.26496944580083C396.00000904430067 386.76496957064546 404.0000092662467 436.74497095725326 424.0000098211118 435.5449709239614C444.0000103759769 434.34497089066946 452.0000105979229 373.6549692069314 472.000011152788 376.50496928599966C492.000011707653 379.3549693650679 500.00001192959905 445.47497119945183 520.0000124844642 449.22497130348904C540.0000130393292 452.97497140752625 548.0000132612753 400.05496993935327 568.0000138161404 394.50496978537825C588.0000143710055 388.9549696314032 596.0000145929514 426.63497067676894 616.0000151478165 422.58497056440876C636.0000157026815 418.53497045204864 654.00001620206 384.9649695207076 664.0000164794926 375.0649692460494 " transform="rotate(102, 400, 400)"></path><path d="M146.9999864959717 443.72393105468757C156.5833200951779 424.74893052825934 173.83332057374906 352.64392852783203 192.9999877721614 352.64392852783203C212.16665497057375 352.64392852783203 219.8333218499387 434.52393079944966 238.99998904835104 443.72393105468757C258.1666562467634 452.9239313099255 265.8333231261284 403.1289299284502 284.9999903245407 396.8039297529741C304.1666575229531 390.47892957749804 311.83332440231806 416.23893029216424 330.9999916007304 413.3639302124024C350.1666587991428 410.4889301326405 357.83332567850766 378.6914292504744 376.99999287692003 383.0039293701172C396.1666600753324 387.31642948976 403.8333269546974 435.2139308185925 422.99999415310975 434.06393078668776C442.1666613515221 432.913930754783 449.83332823088705 374.7526791412007 468.9999954292994 377.48392921697445C488.16666262771173 380.2151792927482 495.83332950707666 443.5801810506995 514.9999967054891 447.1739311504018C534.1666639039015 450.76768125010415 541.8333307832664 400.052679843105 560.9999979816788 394.7339296955456C580.1666651800912 389.41517954798616 587.8333320594561 425.52518054979504 606.9999992578685 421.6439304421165C626.1666664562807 417.7626803344381 643.4166669348518 385.5914294419029 653.000000534058 376.10392917868876 " transform="rotate(97.75, 400, 400)"></path><path d="M157.99998641967778 441.8228909057618C167.1666533406576 423.67289040222175 183.6666537984213 354.70288848876953 201.99998764038094 354.70288848876953C220.33332148234058 354.70288848876953 227.66665501912445 433.02289066162115 245.9999888610841 441.8228909057618C264.33332270304373 450.62289114990244 271.6666562398276 402.99288982849123 289.99999008178725 396.9428896606446C308.3333239237469 390.8928894927979 315.6666574605308 415.5328901763917 333.99999130249046 412.7828901000977C352.3333251444501 410.03289002380376 359.6666586812339 379.6178891799927 377.99999252319355 383.7428892944336C396.3333263651532 387.86788940887453 403.6666599019371 433.6828906799317 421.99999374389677 432.58289064941414C440.3333275858564 431.4828906188966 447.6666611226403 375.85038907547 465.9999949645999 378.4628891479492C484.3333288065595 381.07538922042846 491.6666623433434 441.6853909019471 509.9999961853031 445.1228909973145C528.3333300272627 448.5603910926819 535.6666635640465 400.0503897468567 553.9999974060063 394.9628896057129C572.3333312479659 389.87538946456914 579.6666647847499 424.41539042282113 597.9999986267094 420.7028903198243C616.3333324686689 416.99039021682745 632.8333329264326 386.21788936309815 641.9999998474125 377.14288911132815 " transform="rotate(93.5, 400, 400)"></path><path d="M168.99998634338385 439.921850756836C177.7499865861373 422.5968502761841 193.49998702309355 356.76184844970703 210.9999875086005 356.76184844970703C228.4999879941074 356.76184844970703 235.49998818831023 431.5218505237927 252.99998867381714 439.921850756836C270.49998915932406 448.3218509898793 277.49998935352687 402.8568497285323 294.9999898390338 397.081849568315C312.4999903245407 391.3068494080977 319.4999905187435 414.82685006061905 336.99999100425043 412.201849987793C354.49999148975735 409.57684991496694 361.49999168396016 380.54434910951096 378.9999921694671 384.48184921875C396.49999265497405 388.4193493279891 403.4999928491768 432.1518505412709 420.9999933346837 431.1018505121405C438.4999938201907 430.05185048301007 445.4999940143935 376.9480990097393 462.9999944999004 379.441849078924C480.4999949854073 381.93559914810874 487.4999951796101 439.79060075319467 504.99999566511707 443.07185084422724C522.4999961506239 446.3531009352598 529.4999963448267 400.04809965060844 546.9999968303338 395.1918495158803C564.4999973158407 390.33559938115206 571.4999975100434 423.30560029584717 588.9999979955503 419.761850197532C606.4999984810572 416.2181000992168 622.2499989180135 386.84434928429346 630.999999160767 378.18184904396753 " transform="rotate(89.25, 400, 400)"></path><path d="M179.9999862670899 438.0208106079102C188.33331983161702 421.52081015014653 203.3333202477658 358.82080841064453 219.99998737682003 358.82080841064453C236.66665450587425 358.82080841064453 243.33332135749595 430.0208103859642 259.9999884865502 438.0208106079102C276.6666556156044 446.02081082985626 283.33332246722614 402.72080962857336 299.99998959628033 397.22080947598545C316.6666567253345 391.7208093233976 323.3333235769563 414.1208099448465 339.9999907060105 411.6208098754883C356.6666578350647 409.1208098061302 363.3333246866864 381.47080903902923 379.9999918157406 385.22080914306645C396.6666589447948 388.9708092471036 403.33332579641655 430.6208104026101 419.9999929254708 429.6208103748669C436.666660054525 428.62081034712367 443.3333269061467 378.04580894400857 459.9999940352009 380.4208090098988C476.6666611642551 382.79580907578907 483.33332801587676 437.8958106044423 499.99999514493106 441.02081069114C516.6666622739854 444.14581077783765 523.333329125607 400.0458095543602 539.9999962546613 395.42080942604764C556.6666633837156 390.79580929773505 563.3333302353371 422.1958101688732 579.9999973643913 418.82081007523976C596.6666644934455 415.44580998160626 611.6666649095944 387.47080920548876 619.9999984741214 379.2208089766069 " transform="rotate(85, 400, 400)"></path><path d="M190.99998619079594 436.1197704589844C198.9166530770967 420.44477002410895 213.16665347243807 360.87976837158203 228.99998724503956 360.87976837158203C244.83332101764108 360.87976837158203 251.1666545266817 428.5197702481357 266.99998829928325 436.1197704589844C282.8333220718847 443.71977066983317 289.16665558092535 402.5847695286144 304.99998935352687 397.35976938365593C320.83332312612833 392.13476923869746 327.166656635169 413.41476982907386 342.9999904077705 411.03976976318364C358.833324180372 408.6647696972934 365.1666576894126 382.3972689685475 380.9999914620141 385.9597690673828C396.8333252346156 389.52226916621817 403.1666587436563 429.08977026394933 418.99999251625775 428.13977023759327C434.83332628885927 427.1897702112372 441.1666597978999 379.14351887827786 456.99999357050143 381.3997689408736C472.8333273431029 383.6560190034693 479.1666608521435 436.0010204556899 494.99999462474506 438.9697705380527C510.8333283973466 441.9385206204155 517.1666619063872 400.04351945811186 532.9999956789886 395.64976933621494C548.8333294515903 391.25601921431803 555.1666629606309 421.0860200418993 570.9999967332324 417.87976995294747C586.8333305058338 414.6735198639957 601.0833309011753 388.09726912668407 608.9999977874759 380.2597689092463 " transform="rotate(80.75, 400, 400)"></path><path d="M201.999986114502 434.21872649536135C209.49998632257638 419.36872608337404 222.99998669711033 362.93872451782227 237.99998711325912 362.93872451782227C252.99998752940792 362.93872451782227 258.99998769586745 427.01872629560995 273.99998811201624 434.21872649536135C288.9999885281651 441.4187266951128 294.99998869462456 402.44872561395823 309.9999891107734 397.4987254766291C324.9999895269222 392.5487253393 330.99998969338174 412.70872589860403 345.99999010953053 410.45872583618166C360.9999905256793 408.20872577375934 366.9999906921388 383.32372508336846 381.99999110828765 386.69872517700196C396.99999152443644 390.07372527063546 402.99999169089597 427.5587263105913 417.99999210704476 426.6587262856224C432.99999252319355 425.7587262606535 438.99999268965314 380.24122499784994 453.99999310580193 382.3787250571511C468.9999935219507 384.51622511645235 474.9999936884102 434.10622649224024 489.99999410455905 436.9187265702682C504.9999945207079 439.73122664829606 510.9999946871674 400.04122554716633 525.9999951033162 395.87872543168504C540.9999955194651 391.71622531620375 546.9999956859245 419.9762261002281 561.9999961020733 416.93872601595797C576.9999965182221 413.9012259316878 590.499996892756 388.72372523318205 597.9999971008303 381.2987250271884 " transform="rotate(76.5, 400, 400)"></path><path d="M212.99998603820805 432.3176863464356C220.08331956805608 418.29268595733646 232.8333199217826 364.99768447875977 246.99998698147868 364.99768447875977C261.16665404117475 364.99768447875977 266.8333208650532 425.5176861577815 280.9999879247493 432.3176863464356C295.16665498444536 439.1176865350897 300.83332180832383 402.31268551399927 314.99998886801995 397.6376853842996C329.166655927716 392.9626852545999 334.83332275159444 412.0026857828314 348.99998981129056 409.877685723877C363.1666568709866 407.7526856649226 368.83332369486504 384.25018501288673 382.99999075456117 387.4376851013184C397.16665781425723 390.62518518975 402.8333246381357 426.02768617193055 416.9999916978318 425.17768614834876C431.1666587575279 424.327686124767 436.8333255814063 381.33893493211923 450.99999264110244 383.3576849881259C465.1666597007985 385.37643504413256 470.8333265246769 432.2114363434879 484.99999358437304 434.8676864171809C499.16666064406917 437.5239364908739 504.8333274679476 400.0389354509181 518.9999945276437 396.1076853418524C533.1666615873398 392.17643523278673 538.8333284112182 418.86643597325417 552.9999954709143 415.99768589366573C567.1666625306103 413.12893581407724 579.9166628843368 389.35018515437736 586.9999964141849 382.3376849598278 " transform="rotate(72.25, 400, 400)"></path><path d="M223.9999859619141 430.4166461975098C230.6666528135358 417.2166458312989 242.66665314645485 367.05664443969727 255.99998684969822 367.05664443969727C269.3333205529416 367.05664443969727 274.66665403423895 424.016646019953 287.99998773748234 430.4166461975098C301.3333214407257 436.8166463750666 306.6666549220231 402.1766454140403 319.99998862526644 397.77664529197C333.33332232850984 393.3766451698997 338.6666558098072 411.2966456670588 351.99998951305054 409.29664561157233C365.33332321629393 407.29664555608576 370.6666566975913 385.176644942405 383.9999904008347 388.1766450256348C397.3333241040781 391.17664510886453 402.66665758537545 424.49664603326977 415.99999128861884 423.69664601107513C429.3333249918621 422.89664598888055 434.66665847315954 382.4366448663885 447.9999921764029 384.3366449191007C461.3333258796463 386.2366449718129 466.6666593609436 430.3166461947355 479.99999306418704 432.8166462640936C493.33332676743044 435.31664633345173 498.6666602487278 400.03664535466976 511.99999395197113 396.3366452520197C525.3333276552146 392.6366451493697 530.666661136512 417.7566458462802 543.9999948397553 415.05664577137344C557.3333285429986 412.35664569646667 569.3333288759177 389.9766450755726 575.9999957275394 383.3766448924672 " transform="rotate(68, 400, 400)"></path><path d="M234.99998588562016 428.51560604858406C241.2499860590155 416.1406057052613 252.49998637112708 369.11560440063477 264.99998671791775 369.11560440063477C277.4999870647084 369.11560440063477 282.49998720342467 422.51560588212453 294.99998755021534 428.51560604858406C307.499987897006 434.51560621504353 312.4999880357223 402.0406053140814 324.999988382513 397.9156051996405C337.49998872930365 393.79060508519956 342.49998886801995 410.5906055512862 354.9999892148106 408.7156054992676C367.4999895616013 406.840605447249 372.49998970031754 386.1031048719233 384.9999900471082 388.9156049499512C397.4999903938989 391.7281050279791 402.49999053261513 422.965605894609 414.9999908794058 422.21560587380156C427.49999122619647 421.4656058529941 432.4999913649127 383.5343548006578 444.9999917117034 385.3156048500755C457.49999205849406 387.09685489949317 462.4999921972103 428.4218560459831 474.999992544001 430.7656061110064C487.4999928907917 433.10935617602956 492.49999302950795 400.0343552584215 504.9999933762987 396.56560516218707C517.4999937230893 393.0968550659527 522.4999938618056 416.6468557193063 534.9999942085963 414.1156056490812C547.4999945553868 411.58435557885605 558.7499948674986 390.6031049967679 564.9999950408939 384.4156048251065 " transform="rotate(63.75, 400, 400)"></path><path d="M245.9999858093262 426.61456589965826C251.83331930449518 415.06456557922365 262.33331959579937 371.17456436157227 273.9999865861373 371.17456436157227C285.66665357647526 371.17456436157227 290.33332037261044 421.014565744296 301.9999873629484 426.61456589965826C313.6666543532864 432.21456605502044 318.3333211494216 401.90456521412244 329.9999881397595 398.0545651073109C341.66665513009747 394.20456500049943 346.33332192623266 409.8845654355136 357.9999889165706 408.1345653869629C369.66665590690855 406.38456533841224 374.3333227030438 387.02956480144155 385.99998969338174 389.6545648742676C397.6666566837197 392.2795649470936 402.3333234798548 421.4345657559482 413.9999904701928 420.73456573652794C425.6666574605308 420.0345657171076 430.33332425666595 384.6320647349271 441.99999124700395 386.29456478105027C453.66665823734184 387.95706482717344 458.3333250334771 426.5270658972307 469.999992023815 428.7145659579191C481.66665901415297 430.90206601860746 486.33332581028816 400.03206516217324 497.99999280062616 396.79456507235443C509.6666597909641 393.5570649825356 514.3333265870992 415.53706559233234 525.9999935774372 413.1745655267889C537.6666605677751 410.8120654612455 548.1666608590793 391.2295649179632 553.9999943542483 385.4545647577459 " transform="rotate(59.5, 400, 400)"></path><path d="M256.99998573303225 424.71352575073246C262.41665254997486 413.98852545318607 272.1666528204716 373.23352432250977 282.9999864543569 373.23352432250977C293.8333200882421 373.23352432250977 298.1666535417962 419.51352560646757 308.99998717568144 424.71352575073246C319.83332080956666 429.91352589499735 324.1666542631208 401.7685251141635 334.999987897006 398.1935250149814C345.8333215308913 394.61852491579924 350.1666549844454 409.178525319741 360.99998861833063 407.5535252746582C371.8333222522159 405.9285252295754 376.16665570577 387.9560247309598 386.99998933965526 390.393524798584C397.8333229735405 392.83102486620817 402.1666564270946 419.9035256172874 412.9999900609798 419.2535255992543C423.83332369486504 418.6035255812212 428.1666571484192 385.7297746691964 438.9999907823044 387.27352471202505C449.83332441618967 388.8172747548537 454.16665786974374 424.6322757484783 464.999991503629 426.6635258048318C475.8333251375143 428.6947758611853 480.1666585910683 400.0297750659249 490.99999222495364 397.02352498252174C501.83332585883886 394.0172748991186 506.166659312393 414.42727546535843 516.9999929462782 412.2335254044967C527.8333265801634 410.0397753436349 537.5833268506601 391.8560248391585 542.9999936676028 386.4935246903853 " transform="rotate(55.25, 400, 400)"></path><path d="M267.9999856567383 422.81248560180666C272.99998579545456 412.9124853271485 281.9999860451438 375.29248428344727 291.99998632257643 375.29248428344727C301.9999866000089 375.29248428344727 305.99998671098194 418.01248546863906 315.9999869884145 422.81248560180666C325.99998726584704 427.6124857349743 329.99998737682006 401.6324850142046 339.99998765425255 398.3324849226518C349.9999879316851 395.0324848310991 353.9999880426581 408.4724852039684 363.99998832009067 406.97248516235356C373.9999885975232 405.47248512073867 377.9999887084962 388.8824846604781 387.9999889859287 391.1324847229004C397.9999892633613 393.38248478532273 401.9999893743343 418.37248547862663 411.99998965176684 417.7724854619807C421.9999899291994 417.1724854453347 425.9999900401724 386.8274846034657 435.9999903176049 388.25248464299983C445.99999059503745 389.677484682534 449.99999070601046 422.7374855997259 459.999990983443 424.6124856517445C469.99999126087556 426.4874857037631 473.9999913718486 400.02748496967666 483.9999916492811 397.2524848926891C493.9999919267137 394.4774848157016 497.99999203768664 413.3174853383845 507.9999923151192 411.2924852822044C517.9999925925517 409.2674852260243 526.999992842241 392.4824847603538 531.9999929809572 387.5324846230247 " transform="rotate(51, 400, 400)"></path><path d="M279.0000008392334 420.9114454528809C283.58333429972333 411.83644520111085 291.8333345286052 377.35144424438477 301.000001449585 377.35144424438477C310.1666683705648 377.35144424438477 313.8333351389567 416.5114453308106 323.0000020599366 420.9114454528809C332.16666898091637 425.3114455749512 335.83333574930833 401.4964449142456 345.00000267028815 398.4714448303223C354.166669591268 395.4464447463989 357.83333635965994 407.76644508819584 367.00000328063976 406.39144505004884C376.1666702016196 405.01644501190185 379.8333369700115 389.8089445899964 389.0000038909913 391.8714446472168C398.16667081197113 393.9339447044373 401.8333375803631 416.84144533996584 411.0000045013429 416.29144532470707C420.16667142232274 415.7414453094483 423.8333381907147 387.925194537735 433.00000511169446 389.2314445739746C442.1666720326743 390.53769461021426 445.83333880106625 420.84269545097357 455.00000572204607 422.56144549865724C464.1666726430259 424.28019554634096 467.8333394114178 400.02519487342835 477.0000063323977 397.48144480285646C486.1666732533775 394.93769473228457 489.83334002176946 412.20769521141057 499.0000069427492 410.35144515991215C508.166673863729 408.4951951084137 516.4166740926108 393.1089446815491 521.0000075531008 388.5714445556641 " transform="rotate(46.75, 400, 400)"></path><path d="M290.00000076293946 419.0104053039551C294.16666754520304 410.76040507507327 301.66666775327747 379.41040420532227 310.00000131780456 379.41040420532227C318.33333488233166 379.41040420532227 321.6666683081425 415.0104051929821 330.0000018726696 419.0104053039551C338.33333543719675 423.01040541492813 341.6666688630076 401.36040481428665 350.0000024275347 398.6104047379927C358.3333359920618 395.8604046616988 361.66666941787264 407.0604049724232 370.0000029823998 405.8104049377442C378.3333365469269 404.5604049030651 381.66666997273774 390.73540451951465 390.00000353726483 392.6104045715332C398.3333371017919 394.4854046235518 401.66667052760283 415.31040520130506 410.0000040921299 414.81040518743345C418.333337656657 414.31040517356183 421.6666710824679 389.0229044720043 430.00000464699497 390.2104045049494C438.3333382115221 391.39790453789453 441.6666716373329 418.94790530222116 450.00000520186006 420.51040534557C458.3333387663872 422.0729053889188 461.666672192198 400.0229047771801 470.00000575672516 397.7104047130238C478.3333393212523 395.39790464886755 481.6666727470631 411.0979050844366 490.0000063115902 409.41040503761985C498.3333398761173 407.72290499080316 505.8333400841917 393.7354046027444 510.00000686645524 389.61040448830346 " transform="rotate(42.5, 400, 400)"></path><path d="M301.00000068664554 417.1093632476807C304.75000079068275 409.68436304168705 311.5000009779497 381.46936225891113 319.00000118602406 381.46936225891113C326.5000013940985 381.46936225891113 329.5000014773283 413.509363147805 337.00000168540265 417.1093632476807C344.5000018934771 420.7093633475564 347.5000019767068 401.2243628069791 355.00000218478124 398.7493627383146C362.50000239285566 396.27436266965003 365.5000024760854 406.354362949302 373.00000268415977 405.2293629180908C380.5000028922342 404.1043628868797 383.50000297546393 391.66186254168423 391.00000318353835 393.349362588501C398.5000033916127 395.03686263531773 401.5000034748425 413.77936315529564 409.00000368291694 413.3293631428112C416.5000038909913 412.87936313032674 419.5000039742211 390.12061249892497 427.00000418229547 391.18936252857554C434.5000043903699 392.2581125582262 437.50000447359963 417.0531132461201 445.00000468167406 418.4593632851341C452.5000048897485 419.86561332414806 455.5000049729782 400.02061277358314 463.00000518105264 397.93936271584255C470.50000538912707 395.85811265810185 473.5000054723568 409.98811305011407 481.0000056804312 408.469363007979C488.5000058885056 406.9506129658439 495.25000607577255 394.361862616591 499.0000061798097 390.6493625135942 " transform="rotate(38.25, 400, 400)"></path><path d="M312.00000061035155 415.20832309875493C315.33333403616246 408.6083229156494 321.3333342026219 383.52832221984863 328.0000010542436 383.52832221984863C334.6666679058653 383.52832221984863 337.333334646514 412.0083230099765 344.0000014981357 415.20832309875493C350.6666683497574 418.4083231875333 353.3333350904061 401.08832270702015 360.0000019420278 398.888322645985C366.6666687936495 396.68832258494984 369.33333553429816 405.6483228335294 376.0000023859198 404.64832280578617C382.6666692375415 403.6483227780429 385.3333359781902 392.5883224712025 392.0000028298119 394.0883225128174C398.6666696814336 395.5883225544323 401.33333642208225 412.24832301663486 408.00000327370395 411.84832300553757C414.6666701253256 411.4483229944403 417.3333368659743 391.21832243319426 424.000003717596 392.1683224595503C430.6666705692177 393.11832248590645 433.33333730986635 415.15832309736777 440.00000416148805 416.4083231320468C446.66667101310975 417.6583231667259 449.3333377537584 400.0183226773349 456.0000046053801 398.16832262600985C462.6666714570018 396.3183225746848 465.3333381976505 408.8783229231401 472.0000050492722 407.52832288568675C478.66667190089385 406.17832284823334 484.6666720673534 394.9883225377863 488.0000054931642 391.6883224462336 " transform="rotate(34, 400, 400)"></path><path d="M323.0000005340576 413.30728294982913C325.9166672816421 407.5322827896118 331.1666674272942 385.58728218078613 337.0000009224632 385.58728218078613C342.83333441763216 385.58728218078613 345.1666678156997 410.50728287214804 351.0000013108687 413.30728294982913C356.8333348060377 416.1072830275102 359.16666820410535 400.95228260706125 365.0000016992743 399.0272825536555C370.8333351944433 397.1022825002497 373.16666859251086 404.9422827177568 379.00000208767983 404.06728269348145C384.8333355828488 403.1922826692061 387.1666689809164 393.5147824007208 393.0000024760854 394.8272824371338C398.83333597125437 396.1397824735468 401.16666936932194 410.71728287797407 407.00000286449097 410.36728286826394C412.83333635965994 410.0172828585538 415.1666697577275 392.31603236746355 421.0000032528965 393.1472823905251C426.83333674806545 393.9785324135867 429.1666701461331 413.26353294861536 435.00000364130204 414.3572829789596C440.833337136471 415.4510330093037 443.16667053453864 400.0160325810866 449.0000040297076 398.3972825361772C454.8333375248766 396.7785324912678 457.16667092294415 407.7685327961662 463.0000044181131 406.58728276339446C468.8333379132821 405.40603273062277 474.0833380589342 395.6147824589816 477.0000048065187 392.727282378873 " transform="rotate(29.75, 400, 400)"></path><path d="M334.0000004577637 411.4062428009033C336.5000005271218 406.45624266357424 341.00000065196645 387.64624214172363 346.00000079068275 387.64624214172363C351.000000929399 387.64624214172363 353.0000009848855 409.0062427343195 358.0000011236018 411.4062428009033C363.00000126231805 413.80624286748713 365.00000131780456 400.8162425071023 370.0000014565208 399.1662424613259C375.0000015952371 397.5162424155495 377.00000165072356 404.2362426019842 382.00000178943986 403.4862425811768C387.00000192815617 402.7362425603693 389.0000019836426 394.44124233023905 394.00000212235886 395.5662423614502C399.00000226107517 396.69124239266137 401.0000023165617 409.18624273931334 406.0000024552779 408.8862427309904C411.0000025939942 408.58624272266735 413.00000264948073 393.41374230173284 418.000002788197 394.12624232149994C423.0000029269132 394.838742341267 425.0000029823998 411.36874279986296 430.00000312111604 412.3062428258723C435.0000032598323 413.24374285188156 437.00000331531885 400.0137424848383 442.0000034540351 398.6262424463446C447.00000359275134 397.2387424078508 449.00000364823785 406.65874266919224 454.00000378695415 405.6462426411022C459.0000039256704 404.63374261301215 463.50000405051503 396.2412423801769 466.00000411987315 393.7662423115123 " transform="rotate(25.5, 400, 400)"></path><path d="M344.99999656677244 409.5052026519776C347.08332995790425 405.38020253753666 350.83333006194147 389.70520210266113 354.99999684420504 389.70520210266113C359.16666362646856 389.70520210266113 360.833330339374 407.505202596491 364.99999712163753 409.5052026519776C369.1666639039011 411.50520270746404 370.8333306168065 400.6802024071433 374.9999973990701 399.3052023689964C379.16666418133366 397.9302023308494 380.83333089423905 403.53020248621164 384.99999767650263 402.90520246887206C389.16666445876615 402.28020245153255 390.8333311716716 395.3677022597573 394.9999979539351 396.3052022857666C399.1666647361987 397.24270231177593 400.83333144910415 407.6552026006525 404.9999982313677 407.4052025937167C409.16666501363125 407.1552025867809 410.8333317265367 394.5114522360021 414.9999985088002 395.1052022524747C419.1666652910638 395.69895226894727 420.8333320039692 409.4739526511106 424.99999878623277 410.255202672785C429.16666556849634 411.0364526944594 430.83333228140174 400.01145238859004 434.9999990636653 398.8552023565119C439.1666658459289 397.6989523244338 440.8333325588343 405.54895254221833 444.9999993410978 404.7052025188099C449.1666661233614 403.8614524954016 452.9166662273986 396.8677023013722 454.99999961853035 394.8052022441517 " transform="rotate(21.25, 400, 400)"></path><path d="M355.9999964904785 407.6041625030518C357.66666320338396 404.304162411499 360.6666632866137 391.76416206359863 363.99999671242455 391.76416206359863C367.3333301382354 391.76416206359863 368.66666350855974 406.00416245866256 371.9999969343706 407.6041625030518C375.33333036018144 409.204162547441 376.6666637305058 400.5441623071844 379.9999971563166 399.4441622766668C383.3333305821275 398.34416224614927 384.6666639524518 402.824162370439 387.9999973782626 402.3241623565674C391.3333308040735 401.8241623426958 392.66666417439785 396.2941621892756 395.99999760020864 397.044162210083C399.33333102601955 397.79416223089044 400.6666643963439 406.1241624619918 403.9999978221547 405.9241624564431C407.33333124796553 405.7241624508945 408.6666646182899 395.6091621702715 411.9999980441007 396.0841621834495C415.33333146991157 396.55916219662754 416.6666648402359 407.5791625023582 419.99999826604676 408.2041625196977C423.3333316918576 408.82916253703723 424.66666506218195 400.0091622923418 427.9999984879928 399.08416226667924C431.33333191380365 398.15916224101676 432.666665284128 404.43916241524437 435.99999870993884 403.7641623965177C439.33333213574963 403.089162377791 442.3333322189794 397.49416222256747 443.9999989318849 395.8441621767911 " transform="rotate(17, 400, 400)"></path><path d="M366.9999964141846 405.70312044677735C368.2499964488636 403.2281203781128 370.499996511286 393.8231201171875 372.9999965806441 393.8231201171875C375.49999665000223 393.8231201171875 376.49999667774546 404.5031204134855 378.99999674710364 405.70312044677735C381.49999681646176 406.9031204800693 382.49999684420504 400.4081202998768 384.9999969135631 399.58312027698867C387.4999969829213 398.75812025410045 388.4999970106645 402.1181203473178 390.9999970800227 401.74312033691405C393.4999971493808 401.36812032651034 394.49999717712404 397.2206202114452 396.99999724648217 397.7831202270508C399.49999731584035 398.34562024265637 400.4999973435836 404.59312041598236 402.9999974129417 404.44312041182087C405.4999974822998 404.2931204076594 406.4999975100431 396.7068701971921 408.9999975794012 397.06312020707566C411.49999764875935 397.4193702169592 412.49999767650263 405.68437044625716 414.99999774586075 406.1531204592618C417.4999978152189 406.62187047226644 418.49999784296216 400.00687028874484 420.9999979123203 399.313120269498C423.4999979816784 398.6193702502511 424.4999980094217 403.3293703809218 426.9999980787798 402.82312036687676C429.49999814813793 402.31687035283176 431.74999821056025 398.12062023641414 432.99999824523934 396.88312020208184 " transform="rotate(12.75, 400, 400)"></path><path d="M378.0000001525879 403.80208029785155C378.8333335090406 402.1520802520752 380.3333335506555 395.882080078125 382.0000002635609 395.882080078125C383.66666697646633 395.882080078125 384.3333336616285 403.00208027565697 386.0000003745339 403.80208029785155C387.66666708743935 404.6020803200462 388.3333337726015 400.27208019991787 390.0000004855069 399.7220801846591C391.66666719841237 399.1720801694003 392.33333388357454 401.4120802315452 394.00000059647994 401.1620802246094C395.6666673093854 400.9120802176736 396.33333399454756 398.14708014096345 398.00000070745295 398.52208015136716C399.6666674203584 398.89708016177093 400.3333341055206 403.06208027732157 402.000000818426 402.96208027454725C403.6666675313314 402.8620802717729 404.33333421649354 397.8045801314614 406.000000929399 398.04208013805044C407.66666764230445 398.27958014463945 408.33333432746656 403.78958029750476 410.000001040372 404.10208030617457C411.66666775327747 404.41458031484433 412.3333344384396 400.0045801924966 414.00000115134503 399.5420801796653C415.6666678642505 399.07958016683403 416.3333345494126 402.21958025394787 418.00000126231805 401.88208024458453C419.66666797522345 401.5445802352212 421.16666801683834 398.7470801576094 422.00000137329107 397.9220801347212 " transform="rotate(8.5, 400, 400)"></path><path d="M389.00000007629393 401.9010401489258C389.4166667545203 401.0760401260376 390.1666667753277 397.9410400390625 391.00000013178044 397.9410400390625C391.83333348823317 397.9410400390625 392.1666668308143 401.50104013782845 393.00000018726695 401.9010401489258C393.8333335437197 402.3010401600231 394.16666688630073 400.13604009995896 395.00000024275346 399.8610400923295C395.8333335992062 399.58604008470013 396.1666669417873 400.70604011577257 397.00000029823997 400.58104011230466C397.8333336546927 400.45604010883676 398.16666699727375 399.0735400704817 399.0000003537265 399.2610400756836C399.8333337101792 399.44854008088544 400.16666705276026 401.5310401386608 401.000000409213 401.4810401372736C401.8333337656657 401.43104013588646 402.16666710824677 398.9022900657307 403.0000004646995 399.0210400690252C403.8333338211522 399.1397900723197 404.1666671637333 401.8947901487524 405.000000520186 402.0510401530873C405.83333387663873 402.20729015742216 406.1666672192198 400.0022900962483 407.0000005756725 399.77104008983264C407.83333393212524 399.539790083417 408.1666672747063 401.10979012697396 409.000000631159 400.9410401222923C409.8333339876117 400.77229011761057 410.5833340084192 399.3735400788047 411.00000068664554 398.9610400673606 " transform="rotate(4.25, 400, 400)"></path></g></svg>