<?xml version="1.0" encoding="UTF-8" standalone="no"?>
<!-- Created with Inkscape (http://www.inkscape.org/) -->

<svg
   version="1.1"
   id="svg1"
   width="500"
   height="500"
   viewBox="0 0 500 500"
   xmlns="http://www.w3.org/2000/svg"
   xmlns:svg="http://www.w3.org/2000/svg">
   <defs
      id="defs1" />
   <g
      id="g1">
      <path
         style="fill:#2bfabf;stroke-width:1.79209"
         d="m 390.3479,353.71536 c 0,-12.85571 0.30138,-14.20894 3.16434,-14.20894 1.74039,0 3.16434,1.05499 3.16434,2.34445 0,1.4027 1.16223,0.99503 2.89339,-1.01493 5.27333,-6.12265 12.92832,-3.06381 12.92832,5.16599 0,4.6435 -4.56006,4.75678 -7.16967,0.17823 -3.40831,-5.98012 -7.06987,0.15379 -7.06987,11.84342 0,9.20753 -0.27693,9.90072 -3.95542,9.90072 -3.84242,0 -3.95543,-0.40598 -3.95543,-14.20894 z m -19.77714,10.55915 c -1.74038,-0.44836 -4.76628,-2.71009 -6.72421,-5.02608 -1.95794,-2.31599 -3.5599,-3.13824 -3.5599,-1.82721 0,2.80491 -4.15951,3.21456 -5.44951,0.53665 -0.68853,-1.42927 4.91467,-38.27445 6.11215,-40.19183 0.14667,-0.2348 1.85747,0.10674 3.80179,0.7591 2.32655,0.78056 3.27522,2.31446 2.77484,4.48664 -0.41816,1.81533 -1.24654,5.9109 -1.8408,9.10123 -1.02425,5.49873 -0.89696,5.67463 2.44548,3.37964 6.81357,-4.67829 17.47078,3.17509 17.47078,12.87434 0,5.70517 -5.10732,14.64684 -9.05932,15.86061 -1.54381,0.47417 -4.23091,0.49527 -5.9713,0.0469 z m 4.05944,-8.60071 c 4.21847,-2.89648 3.83429,-9.33365 -0.78899,-13.22009 -2.99434,-2.51711 -4.57575,-2.73706 -7.11978,-0.99029 -4.52718,3.10843 -4.34971,11.8262 0.28945,14.21854 4.64653,2.39613 4.11683,2.39669 7.61932,-0.008 z m 51.08622,6.78604 c -9.92757,-2.49134 -11.33668,-18.65879 -2.30451,-26.44087 7.04506,-6.06998 13.52005,-5.94685 18.42845,0.35042 2.13593,2.7403 3.88351,5.80173 3.88351,6.80317 0,1.00147 -4.62197,3.42598 -10.27106,5.38779 -5.64911,1.96181 -9.87896,4.38097 -9.39967,5.37589 1.43599,2.98085 10.79308,2.04504 14.7055,-1.47073 4.58673,-4.12168 7.93314,-0.92156 3.81599,3.64917 -2.68727,2.98333 -12.52793,8.05079 -14.51301,7.47349 -0.5228,-0.15203 -2.47814,-0.65978 -4.3452,-1.12833 z m 6.95455,-17.85453 c 1.95793,-0.72202 3.55988,-2.1933 3.55988,-3.26953 0,-3.74055 -4.79458,-4.2857 -8.71416,-0.99083 -4.52698,3.8055 -5.28356,8.034 -1.17441,6.56378 1.52284,-0.54486 4.37075,-1.58141 6.32869,-2.30342 z m -97.19857,3.13543 c -12.30362,-7.16661 -14.67426,-25.41141 -3.91094,-30.09927 11.51346,-5.01456 25.35082,11.58504 19.5048,23.39837 -0.95273,1.92522 -3.49945,0.99298 -10.41497,-3.81246 -8.02707,-5.57783 -9.08608,-5.89149 -8.60323,-2.54833 0.31119,2.1547 3.81494,5.88983 8.05792,8.59001 4.12904,2.62766 7.11292,5.59632 6.63086,6.59701 -1.28713,2.67189 -3.86292,2.18591 -11.26444,-2.12533 z m 10.57472,-16.20873 c 0,-3.15312 -4.79942,-8.26438 -7.76016,-8.26438 -4.82734,0 -5.04969,2.56859 -0.54327,6.27568 4.86659,4.0034 8.30343,4.82653 8.30343,1.9887 z m 104.75666,8.80668 c -6.54522,-14.6198 -6.46106,-16.3672 0.73333,-15.22807 1.02181,0.16179 2.31522,-1.55471 2.87425,-3.81447 1.35678,-5.4844 8.23781,-7.63185 11.41076,-3.5611 3.50284,4.49396 1.07762,8.0562 -4.42847,6.50469 -6.48596,-1.82764 -7.73518,3.56383 -3.17906,13.72024 2.80624,6.25556 3.15282,8.51036 1.66232,10.81448 -2.87929,4.45099 -3.60651,3.77487 -9.07313,-8.43577 z m 28.14567,-14.452 c -5.10511,-2.407 -7.91084,-7.47907 -7.91084,-14.30082 0,-9.14224 8.58025,-20.79583 15.31144,-20.79583 12.08192,0 15.97589,16.38334 6.71725,28.26175 -2.67753,3.43511 -5.46721,6.24569 -6.1993,6.24569 -0.73206,0 -2.27926,0.38434 -3.43817,0.85409 -1.15892,0.46977 -3.17509,0.35058 -4.48038,-0.26488 z m 10.75877,-11.14443 c 4.03471,-5.17634 1.19008,-15.83282 -4.22639,-15.83282 -3.24039,0 -8.11455,6.04146 -8.11455,10.05788 0,4.59132 3.13853,8.21075 7.11978,8.21075 1.82741,0 4.17693,-1.09611 5.22116,-2.43581 z m -174.90409,-6.10672 -5.07636,-6.51269 -4.50697,5.53973 c -4.33354,5.32656 -4.60737,5.39743 -7.11589,1.84123 -2.46409,-3.49318 -1.99646,-4.47824 8.42352,-17.74415 l 11.03246,-14.04563 9.4453,11.99141 c 7.19442,9.13381 9.03923,12.61914 7.74134,14.62552 -1.34652,2.08153 -3.24092,0.94863 -9.03077,-5.40071 -6.43451,-7.05633 -7.60902,-7.67269 -9.64438,-5.06142 -2.03539,2.6113 -1.70008,3.79084 2.75336,9.68574 2.78904,3.69177 5.07098,7.81061 5.07098,9.153 0,4.34206 -3.89322,2.59854 -9.09259,-4.07203 z M 31.639115,272.46581 C 16.92768,269.76565 4.9727035,257.48472 1.9565955,241.97401 c -0.934199,-4.80418 -0.3955268,-5.42124 7.5310379,-8.62685 11.2116256,-4.53415 11.4996126,-4.47777 13.8188846,2.70577 2.883902,8.93237 8.819716,14.14015 16.116878,14.14015 15.239895,0 17.086493,-6.24506 17.086493,-57.78549 v -39.64725 h 11.99787 11.997869 l -0.538555,45.16414 c -0.501231,42.03511 -0.781893,45.74996 -4.05118,53.62005 -1.931972,4.65075 -5.486714,10.23288 -7.899446,12.40479 -8.506588,7.65742 -22.811389,11.00641 -36.377332,8.51649 z m 69.698265,-2.17175 c -6.937302,-2.57673 -13.184076,-12.62205 -13.184076,-21.20103 0,-9.49197 7.486246,-20.05589 17.082106,-24.10479 4.09284,-1.72693 15.27328,-4.29814 24.8454,-5.71378 15.87057,-2.34712 17.44667,-2.95899 17.88945,-6.94505 1.67913,-15.1159 -30.05616,-14.20833 -43.20417,1.23555 -3.07683,3.61411 -3.32933,3.581 -9.129847,-1.19674 -5.206149,-4.28817 -5.745668,-5.44064 -4.238477,-9.05375 2.593858,-6.21803 15.086624,-15.56751 24.358264,-18.22952 12.68134,-3.64096 30.24994,-1.75714 39.55729,4.24161 12.51624,8.06692 14.18898,12.51678 15.11285,40.20381 l 0.79109,23.70747 5.78322,-0.21447 c 4.65756,-0.17274 6.12038,0.73483 7.51532,4.66266 2.61992,7.3771 2.20197,8.70109 -3.7547,11.89419 -9.04807,4.85023 -20.32756,3.84776 -26.03524,-2.31387 -2.67735,-2.89029 -4.86791,-7.07191 -4.86791,-9.2925 0,-3.54586 -0.76906,-3.19287 -6.31669,2.89931 -3.47419,3.8152 -9.0746,7.99684 -12.44539,9.29249 -7.1326,2.74163 -22.54393,2.80815 -29.75849,0.12849 z m 36.49833,-18.87164 c 5.8265,-3.12331 10.44007,-10.22175 10.44007,-16.06314 0,-3.48043 -0.97534,-3.67274 -12.26182,-2.4174 -16.87393,1.8768 -23.74313,4.41612 -25.89398,9.57219 -1.53822,3.68743 -1.27053,4.93274 1.73053,8.05046 4.36398,4.5336 18.27164,4.99277 25.9852,0.85789 z m 202.40873,17.3416 c -11.02467,-4.88783 -18.51175,-12.60834 -22.51443,-23.21634 -8.11944,-21.51834 -0.90884,-45.5131 17.24191,-57.37601 13.27114,-8.67368 39.41186,-5.41297 51.50939,6.42512 6.35157,6.21536 12.12713,22.77775 11.47113,32.89545 l -0.48477,7.47697 -30.60328,1.01493 -30.60326,1.01492 3.57646,5.82805 c 7.73776,12.6091 27.08234,15.45605 42.49172,6.2535 l 8.59423,-5.13247 3.61071,5.65977 c 4.60685,7.22124 4.58541,7.64501 -0.62647,12.38588 -11.80029,10.73381 -37.43015,13.96732 -53.66334,6.77023 z m 35.86392,-49.11948 c 0,-4.79326 -4.77278,-13.47184 -8.65773,-15.74279 -2.28168,-1.33377 -7.7461,-2.42505 -12.14314,-2.42505 -6.98238,0 -8.67576,0.87385 -13.37401,6.9015 -9.48311,12.16636 -8.16055,13.397 14.39775,13.397 12.75376,0 19.77713,-0.75665 19.77713,-2.13066 z M 203.5749,229.6205 c -8.22457,-22.47908 -15.20196,-41.70298 -15.50531,-42.71979 -0.31017,-1.03967 4.46188,-1.58597 10.90431,-1.2483 l 11.45584,0.60043 10.39037,30.95519 c 5.7147,17.02536 10.82428,30.9552 11.35462,30.9552 0.53035,0 5.66986,-13.92984 11.4211,-30.9552 l 10.45684,-30.95519 11.34547,-0.60043 c 6.48157,-0.34302 11.10901,0.20299 10.79392,1.27361 -0.30335,1.03072 -7.30485,20.25463 -15.55891,42.71979 l -15.00739,40.84575 h -13.54855 -13.54857 z m 79.54884,-1.2483 0.42763,-42.11936 10.67966,-0.6002 10.67965,-0.60021 v 42.71957 42.71956 h -11.1073 -11.10729 z m 124.62804,-0.60875 v -42.72813 l 8.96135,0.60877 c 8.91315,0.60549 8.9706,0.65073 10.67965,8.40881 l 1.71831,7.80008 3.71479,-6.46429 c 2.04314,-3.55537 6.11412,-7.75048 9.04666,-9.32247 15.15889,-8.12593 29.06662,1.89646 32.91997,23.72333 0.87826,4.97479 0.44869,5.40624 -7.71675,7.75065 -9.43965,2.71023 -11.85886,1.92342 -11.85886,-3.85688 0,-4.50064 -7.11066,-12.20662 -11.2636,-12.20662 -1.6093,0 -5.25118,2.66309 -8.09303,5.91794 l -5.16701,5.91797 -0.51513,28.58947 -0.51515,28.58948 H 418.70739 407.75178 Z M 284.4573,167.71046 c -4.30631,-7.02361 -4.14003,-12.00038 0.60433,-18.08715 7.87313,-10.10085 21.43122,-4.2638 21.43122,9.22658 0,13.80979 -15.2431,19.9391 -22.03555,8.86057 z"
         id="path1" />
   </g>
</svg>
